<?xml version="1.0" encoding="iso-8859-1"?>
<!-- Generator: Adobe Illustrator 19.0.0, SVG Export Plug-In . SVG Version: 6.00 Build 0)  -->
<svg version="1.1" id="Capa_1" xmlns="http://www.w3.org/2000/svg" xmlns:xlink="http://www.w3.org/1999/xlink" x="0px" y="0px"
	 viewBox="0 0 512.001 512.001" style="enable-background:new 0 0 512.001 512.001;" xml:space="preserve">
<polygon style="fill:#F7A139;" points="10.002,502 313.978,333.321 239.689,293.835 392.196,195.664 328.089,162.218 
	501.999,10.001 205.976,158.648 279.55,197.752 131.877,290.45 209.654,331.789 "/>
<path d="M138.527,244.94c1.816,0,3.654-0.495,5.307-1.532l43.226-27.132c4.678-2.936,6.09-9.108,3.153-13.786
	s-9.107-6.09-13.786-3.153l-43.226,27.132c-4.678,2.936-6.09,9.108-3.153,13.786C131.947,243.281,135.2,244.94,138.527,244.94z"/>
<path d="M113.995,260.345c1.813,0,3.648-0.493,5.298-1.526l0.201-0.126c4.681-2.932,6.099-9.102,3.168-13.783
	c-2.932-4.679-9.099-6.098-13.783-3.168l-0.201,0.126c-4.681,2.932-6.099,9.102-3.168,13.783
	C107.408,258.682,110.664,260.345,113.995,260.345z"/>
<path d="M510.296,4.42c-2.809-4.177-8.286-5.615-12.784-3.355L201.488,149.712c-3.343,1.678-5.469,5.081-5.512,8.821
	c-0.044,3.74,2.003,7.191,5.306,8.946l58.313,30.993L126.561,281.98c-3.024,1.898-4.806,5.263-4.677,8.83
	c0.128,3.567,2.148,6.795,5.3,8.47l64.794,34.438L3.515,494.39c-3.91,3.333-4.658,9.086-1.731,13.308
	c1.93,2.782,5.041,4.303,8.225,4.303c1.648,0,3.314-0.407,4.846-1.257L318.83,342.065c3.205-1.779,5.18-5.169,5.147-8.835
	c-0.033-3.665-2.069-7.02-5.307-8.74l-59.226-31.48l138.164-88.938c2.995-1.928,4.738-5.305,4.576-8.864
	c-0.162-3.559-2.205-6.763-5.363-8.411l-51.146-26.685l162.91-142.586C512.373,14.211,513.107,8.597,510.296,4.42z M321.503,154.692
	c-2.484,2.174-3.735,5.435-3.344,8.712c0.393,3.278,2.377,6.151,5.304,7.678l48.851,25.487l-138.037,88.856
	c-2.983,1.921-4.727,5.28-4.578,8.826c0.147,3.546,2.164,6.748,5.298,8.413l58.031,30.845L92.579,444.741l123.563-105.342
	c2.52-2.148,3.813-5.404,3.454-8.695c-0.359-3.292-2.324-6.191-5.248-7.745l-62.517-33.228l133.035-83.51
	c3.023-1.898,4.806-5.263,4.677-8.83c-0.128-3.567-2.148-6.795-5.3-8.47L227.758,158.9L436.39,54.137L321.503,154.692z"/>
<path d="M365.68,343.524l-0.208,0.116c-4.826,2.685-6.563,8.774-3.877,13.601c1.828,3.287,5.235,5.14,8.747,5.14
	c1.646,0,3.314-0.407,4.853-1.263l0.208-0.116c4.826-2.685,6.563-8.774,3.877-13.6C376.595,342.574,370.503,340.84,365.68,343.524z"
	/>
<path d="M340.358,357.571l-44.624,24.764c-4.829,2.68-6.571,8.767-3.892,13.596c1.827,3.292,5.237,5.149,8.753,5.149
	c1.642,0,3.307-0.405,4.844-1.258l44.624-24.764c4.829-2.68,6.571-8.767,3.892-13.596
	C351.274,356.633,345.186,354.89,340.358,357.571z"/>
<g>
</g>
<g>
</g>
<g>
</g>
<g>
</g>
<g>
</g>
<g>
</g>
<g>
</g>
<g>
</g>
<g>
</g>
<g>
</g>
<g>
</g>
<g>
</g>
<g>
</g>
<g>
</g>
<g>
</g>
</svg>
